# xmcd
#
# Track frame offsets:
# 150
# 10212
# 22337
# 33475
# 43587
# 54425
# 64502
# 76162
# 90912
# 104150
# 113977
# 124725
#
# Disc length: 1801 seconds
#
#
# Revision: 0
# Processed by: cddbd v1.4PL0 Copyright (c) Steve Scherf et al.
# Submitted via: FreeRIP 2.00 
#
DISCID=9707070c
DTITLE=Boone, Pat - 36 All-Time Greatest Hits Disk 1
DYEAR=1997
DGENRE=Oldies
TTITLE0=Love Letters In The Sand
TTITLE1=April Love
TTITLE2=Tutti Frutti
TTITLE3=Wish You Were Here, Buddy
TTITLE4=Are You Lonesome Tonight
TTITLE5=Ol' Man River
TTITLE6=You'll Never Walk Alone
TTITLE7=Lazy River
TTITLE8=Chains Of Love
TTITLE9=Bernadine
TTITLE10=Stagger Lee
TTITLE11=Don't Forbid Me
EXTD=
EXTT0=
EXTT1=
EXTT2=
EXTT3=
EXTT4=
EXTT5=
EXTT6=
EXTT7=
EXTT8=
EXTT9=
EXTT10=
EXTT11=
PLAYORDER=
